#!OML:ASF H:\ManfredETheater\Project 1\Capture day 1\Session 1\subject.ASF
:FULLY-SPECIFIED
:DEGREES
111
root -1.1178 20.7741 -3.68061 2.59508 3.70156 -8.85287
lowerback 19.1329 -0.252247 4.5641
upperback 1.65681 1.19735 5.76564
thorax -8.9896 0.52169 3.38141
lowerneck -18.4024 -1.31487 -1.4041
upperneck 13.0299 -1.0397 -2.18198
head 6.99728 -0.77561 -0.601531
rclavicle -2.04748e-014 -2.06736e-014
rhumerus -48.7534 0.324855 -84.9568
rradius 94.3101
rwrist -4.65377
rhand -29.2382 3.53653
rfingers 7.12502
rthumb -2.58171 -26.4276
lclavicle -2.04748e-014 -2.06736e-014
lhumerus -58.5588 -16.7214 100.577
lradius 101.745
lwrist 12.8115
lhand -22.6396 -18.6089
lfingers 7.12502
lthumb 3.79114 11.3371
rfemur -31.7924 -5.2284 33.7468
rtibia 57.3897
rfoot -19.8166 -11.4303
rtoes -25.038
lfemur -48.1109 7.044 -10.8571
ltibia 102.59
lfoot -7.36028 -5.83491
ltoes -6.14777
112
root -1.15791 20.7703 -3.25176 2.85418 3.87836 -9.34181
lowerback 18.9022 -0.0275947 4.91276
upperback 1.49084 1.56948 5.85071
thorax -9.05006 0.687167 3.17936
lowerneck -18.449 -1.5445 -1.59203
upperneck 12.8212 -1.32762 -2.04569
head 6.93765 -0.908714 -0.557834
rclavicle 9.54166e-015 9.30312e-014
rhumerus -47.6839 1.1077 -85.381
rradius 95.2942
rwrist -4.51804
rhand -29.3694 3.34201
rfingers 7.12502
rthumb -2.70847 -26.6205
lclavicle 9.54166e-015 9.30312e-014
lhumerus -59.8529 -16.4106 99.9177
lradius 102.138
lwrist 12.0631
lhand -22.6873 -18.7416
lfingers 7.12502
lthumb 3.74507 11.2052
rfemur -30.1465 -5.4289 34.5037
rtibia 57.0078
rfoot -21.0469 -12.1355
rtoes -25.5275
lfemur -51.6507 7.25045 -10.4626
ltibia 103.325
lfoot -7.9236 -6.44371
ltoes -6.63815
113
root -1.19467 20.7747 -2.82152 3.1417 4.07132 -9.6519
lowerback 18.6469 0.190298 5.15811
upperback 1.32996 1.90024 5.86166
thorax -9.08666 0.835011 2.9664
lowerneck -18.5162 -1.7729 -1.7973
upperneck 12.6094 -1.60989 -1.89852
head 6.88166 -1.03905 -0.507336
rclavicle 7.7526e-015 -2.70347e-014
rhumerus -46.7567 1.90484 -85.811
rradius 96.5117
rwrist -4.34921
rhand -29.4028 3.2832
rfingers 7.12502
rthumb -2.74074 -26.6789
lclavicle 7.7526e-015 -2.70347e-014
lhumerus -61.2057 -16.2271 99.2871
lradius 102.716
lwrist 11.1051
lhand -22.7611 -18.8773
lfingers 7.12502
lthumb 3.67384 11.0708
rfemur -28.4104 -5.72012 35.0323
rtibia 56.4045
rfoot -22.3134 -12.6721
rtoes -25.8897
lfemur -55.0001 7.23755 -10.3609
ltibia 103.412
lfoot -8.33647 -7.08601
ltoes -7.17722
114
root -1.22826 20.7896 -2.389 3.42944 4.27308 -9.78657
lowerback 18.3829 0.407797 5.29411
upperback 1.18518 2.19823 5.80462
thorax -9.09751 0.970089 2.75048
lowerneck -18.6018 -2.00524 -2.03591
upperneck 12.4077 -1.89146 -1.72568
head 6.83363 -1.16846 -0.443385
rclavicle -5.36719e-015 -6.36111e-015
rhumerus -45.9981 2.69286 -86.2519
rradius 97.9679
rwrist -4.20536
rhand -29.3619 3.34852
rfingers 7.12502
rthumb -2.70126 -26.6141
lclavicle -5.36719e-015 -6.36111e-015
lhumerus -62.5778 -16.1668 98.71
lradius 103.456
lwrist 10.2147
lhand -22.7908 -18.981
lfingers 7.12502
lthumb 3.6451 10.9676
rfemur -26.5368 -6.09534 35.3306
rtibia 55.5422
rfoot -23.4545 -13.1388
rtoes -26.4901
lfemur -58.0347 7.03172 -10.5131
ltibia 102.835
lfoot -8.62111 -7.7583
ltoes -7.60022
115
root -1.25907 20.8153 -1.95374 3.70594 4.46136 -9.76838
lowerback 18.1096 0.637396 5.32336
upperback 1.06754 2.48121 5.69163
thorax -9.07154 1.10158 2.53875
lowerneck -18.6905 -2.24758 -2.29039
upperneck 12.2012 -2.18231 -1.54677
head 6.78605 -1.30245 -0.376079
rclavicle -1.2921e-014 2.62396e-014
rhumerus -45.4082 3.45646 -86.7008
rradius 99.6314
rwrist -4.14132
rhand -29.2618 3.56186
rfingers 7.12502
rthumb -2.60453 -26.402
lclavicle -1.2921e-014 2.62396e-014
lhumerus -63.9261 -16.2246 98.2187
lradius 104.321
lwrist 9.61274
lhand -22.764 -19.0652
lfingers 7.12502
lthumb 3.67102 10.8829
rfemur -24.5096 -6.52046 35.4194
rtibia 54.4145
rfoot -24.4374 -13.4658
rtoes -27.0599
lfemur -60.6763 6.69382 -10.8664
ltibia 101.612
lfoot -8.86173 -8.43712
ltoes -8.14355
116
root -1.28784 20.8516 -1.5145 3.94417 4.66066 -9.62825
lowerback 17.8354 0.87326 5.26101
upperback 0.98493 2.74722 5.53916
thorax -9.00594 1.22869 2.34151
lowerneck -18.7728 -2.50534 -2.55999
upperneck 11.9911 -2.49062 -1.35908
head 6.73791 -1.44462 -0.305493
rclavicle -9.93923e-015 1.90833e-014
rhumerus -44.9863 4.19842 -87.1537
rradius 101.468
rwrist -4.20581
rhand -29.1263 3.9056
rfingers 7.12502
rthumb -2.47366 -26.0598
lclavicle -9.93923e-015 1.90833e-014
lhumerus -65.2194 -16.3833 97.8368
lradius 105.275
lwrist 9.44874
lhand -22.6548 -19.1197
lfingers 7.12502
lthumb 3.77651 10.8266
rfemur -22.306 -6.98478 35.3325
rtibia 53.0334
rfoot -25.1944 -13.691
rtoes -27.6601
lfemur -62.8423 6.25441 -11.3571
ltibia 99.7808
lfoot -9.04649 -9.14953
ltoes -8.66848
117
root -1.31504 20.897 -1.07073 4.1416 4.86117 -9.41273
lowerback 17.5539 1.11911 5.13303
upperback 0.940555 3.00802 5.36346
thorax -8.89435 1.35664 2.15939
lowerneck -18.849 -2.77764 -2.8324
upperneck 11.7803 -2.8176 -1.16711
head 6.69012 -1.59541 -0.235228
rclavicle 4.01545e-014 7.63333e-014
rhumerus -44.7111 4.93263 -87.6101
rradius 103.416
rwrist -4.39405
rhand -28.9679 4.36138
rfingers 7.12502
rthumb -2.3207 -25.6057
lclavicle 4.01545e-014 7.63333e-014
lhumerus -66.4249 -16.6153 97.5688
lradius 106.279
lwrist 9.76115
lhand -22.4395 -19.1469
lfingers 7.12502
lthumb 3.98441 10.7956
rfemur -19.9444 -7.43458 35.1254
rtibia 51.4314
rfoot -25.6693 -13.8144
rtoes -28.328
lfemur -64.5093 5.79179 -11.9243
ltibia 97.4024
lfoot -9.15492 -9.93593
ltoes -9.16813
